<?xml version="1.0" standalone="no"?>
<!DOCTYPE svg PUBLIC "-//W3C//DTD SVG 20010904//EN"
 "http://www.w3.org/TR/2001/REC-SVG-20010904/DTD/svg10.dtd">
<svg version="1.0" xmlns="http://www.w3.org/2000/svg"
 width="271.000000pt" height="271.000000pt" viewBox="0 0 271.000000 271.000000"
 preserveAspectRatio="xMidYMid meet">
<metadata>
Created by potrace 1.16, written by Peter Selinger 2001-2019
</metadata>
<g transform="translate(0.000000,271.000000) scale(0.100000,-0.100000)"
fill="#000000" stroke="none">
<path d="M140 1315 l0 -235 110 0 c154 0 217 30 261 125 24 51 25 170 4 223
-40 94 -97 121 -257 122 l-118 0 0 -235z m225 100 c22 -21 25 -33 25 -94 0
-84 -22 -118 -82 -128 l-38 -6 0 127 0 126 35 0 c25 0 44 -8 60 -25z"/>
<path d="M930 1315 l0 -235 65 0 65 0 0 235 0 235 -65 0 -65 0 0 -235z"/>
<path d="M2017 1536 l-69 -9 4 -43 c3 -40 1 -44 -19 -44 -21 0 -23 -5 -23 -51
0 -41 3 -52 19 -56 16 -4 19 -17 23 -99 6 -134 18 -148 127 -152 89 -3 86 -5
94 65 l5 42 -43 -6 -43 -5 -4 76 -3 76 38 0 37 0 0 55 0 55 -38 0 -38 0 4 39
c6 66 5 67 -71 57z"/>
<path d="M1715 1531 c-27 -5 -30 -10 -33 -49 -3 -34 -7 -42 -23 -42 -16 0 -19
-7 -19 -55 0 -47 3 -55 19 -55 17 0 19 -10 23 -95 6 -133 18 -149 119 -153 41
-1 79 1 85 5 6 5 13 29 16 55 l5 46 -46 -1 -46 -2 -3 73 -3 72 41 0 40 0 0 55
0 55 -40 0 -40 0 0 50 c0 50 0 50 -32 49 -18 -1 -46 -4 -63 -8z"/>
<path d="M655 1430 c-60 -25 -95 -90 -95 -177 0 -71 22 -119 70 -151 32 -21
44 -23 132 -20 53 2 99 6 103 10 4 3 3 27 0 51 -7 44 -8 45 -32 36 -56 -21
-143 -5 -143 26 0 12 20 15 106 15 l107 0 -6 60 c-6 72 -35 122 -81 144 -36
17 -127 21 -161 6z"/>
<path d="M1182 1424 c-82 -42 -114 -171 -66 -265 7 -15 27 -38 44 -53 28 -23
40 -26 110 -26 70 0 82 3 110 26 46 39 60 74 60 152 0 76 -19 116 -73 156 -37
27 -139 33 -185 10z"/>
<path d="M1480 1260 l0 -180 65 0 65 0 0 180 0 180 -65 0 -65 0 0 -180z"/>
<path d="M2285 1426 c-42 -18 -83 -69 -91 -112 -10 -56 2 -140 26 -174 37 -51
70 -62 180 -58 54 1 101 5 104 8 3 3 0 24 -6 47 l-10 42 -67 -6 c-55 -5 -70
-2 -84 11 -9 10 -17 22 -17 27 0 5 47 9 105 9 l105 0 0 53 c0 65 -31 123 -80
148 -41 22 -121 24 -165 5z"/>
</g>
</svg>
